<svg width="622" height="611" viewBox="0 0 622 611" fill="none" xmlns="http://www.w3.org/2000/svg">
<path d="M322.423 285.769C319.752 278.158 311.345 278.739 308.306 284.527C305.268 278.739 296.861 278.184 294.189 285.769C290.758 295.495 306.997 305.485 308.306 306.251C309.616 305.485 325.828 295.495 322.423 285.769Z" fill="#C55B83"/>
<path d="M305.189 371.715C302.308 361.355 295.603 350.731 284.682 347.744C278.841 346.159 272.896 347.982 268.338 351.814C263.729 355.699 261.031 361.54 260.324 367.46C259.879 371.213 260.455 375.177 260.612 378.93C260.795 383.185 260.979 387.414 261.083 391.669C261.293 400.126 261.241 408.609 260.638 417.066C259.722 429.937 256.709 442.544 250.083 453.696C246.835 459.167 242.75 464.083 238.114 468.444C232.614 473.624 226.223 477.879 220.147 482.319C213.311 487.314 206.291 491.833 198.879 495.929C193.353 498.995 187.329 502.695 180.964 503.805C176.643 503.911 172.348 504.016 168.026 503.805C165.014 503.646 162.054 503.276 159.147 502.536C156.528 501.876 153.935 501.215 151.237 501.321C148.173 500.158 145.213 498.651 142.359 496.854C138.823 494.581 135.706 491.78 132.537 489.031C130.153 486.97 127.718 484.618 124.994 482.926C125.753 481.631 123.92 479.993 122.689 481.209C118.498 485.331 112.029 486.336 106.477 486.97C101.553 487.525 96.4715 487.366 91.6262 488.582C87.1737 489.692 82.7735 491.384 78.7139 493.577C75.0733 495.533 71.0137 498.334 69.7303 502.51C69.2327 504.149 69.2851 506.316 70.3589 507.716C71.328 508.959 73.0566 509.276 74.5495 509.461C79.002 509.963 83.7688 508.8 88.0904 507.901C90.2642 507.452 92.4119 506.95 94.5858 506.474C96.8906 505.972 99.1169 505.708 101.474 505.549C109.934 504.941 118.446 505.074 126.906 505.523C137.67 506.104 148.383 507.346 159.069 508.641C159.173 508.668 159.278 508.641 159.383 508.641C161.714 509.196 164.15 509.223 166.585 509.249C174.338 509.408 181.96 511.39 189.686 512.209C202.284 513.557 215.039 513.108 227.559 511.205C250.135 507.769 273.891 499.048 289.239 481.235C297.908 471.166 302.57 458.533 305.163 445.609C307.887 432.051 308.175 418.282 308.228 404.486C308.332 393.519 308.149 382.313 305.189 371.715Z" fill="#C55B83"/>
<path d="M260.167 369.865C260.193 369.865 260.245 369.865 260.272 369.865C262.629 369.786 264.907 369.204 267.212 368.808C269.727 368.359 272.241 368.041 274.781 367.698C283.791 366.561 292.958 365.663 301.549 362.597C301.077 361.725 300.606 360.879 300.082 360.033C291.622 362.914 282.691 363.76 273.839 364.896C271.377 365.214 268.888 365.557 266.453 365.98C264.41 366.324 262.445 366.773 260.376 366.905C260.35 367.09 260.324 367.249 260.298 367.434C260.245 368.253 260.193 369.046 260.167 369.865Z" fill="#E4C6C6"/>
<path d="M288.794 481.79C282.455 478.566 276.248 475.051 270.276 471.166C262.864 466.329 255.871 460.938 249.245 455.071C248.721 455.89 248.197 456.709 247.647 457.502C254.221 463.29 261.162 468.629 268.495 473.439C274.388 477.324 280.517 480.812 286.777 484.01C287.432 483.296 288.113 482.556 288.794 481.79Z" fill="#E4C6C6"/>
<path d="M210.403 491.569C210.141 490.881 209.827 490.221 209.539 489.56C208.727 490.089 207.915 490.591 207.103 491.093C207.287 491.489 207.47 491.912 207.627 492.335C210.351 498.889 211.791 505.866 213.703 512.685C214.673 512.632 215.668 512.553 216.637 512.474C214.646 505.47 213.153 498.308 210.403 491.569Z" fill="#E4C6C6"/>
<path d="M241.047 508.351C237.642 497.515 231.959 487.684 225.883 478.196C225.097 478.751 224.311 479.306 223.552 479.887C229.471 489.111 234.971 498.625 238.297 509.144V509.17C239.24 508.959 240.157 508.721 241.1 508.483C241.073 508.43 241.047 508.404 241.047 508.351Z" fill="#E4C6C6"/>
<path d="M283.398 390.004C278.16 390.479 272.948 391.008 267.71 391.378C265.536 391.536 263.31 391.669 261.11 391.642V391.669C261.136 392.62 261.162 393.571 261.162 394.523C263.074 394.549 264.986 394.444 266.846 394.338C272.215 393.994 277.558 393.439 282.901 392.937C291.282 392.171 299.689 391.616 308.018 390.559C307.966 389.607 307.913 388.629 307.835 387.678C299.715 388.735 291.544 389.264 283.398 390.004Z" fill="#E4C6C6"/>
<path d="M238.48 468.074C238.349 468.179 238.245 468.312 238.114 468.417C237.538 468.946 236.961 469.474 236.359 470.003C245.421 480.654 255.976 489.93 266.845 498.784C267.762 498.308 268.653 497.806 269.543 497.277C258.517 488.318 247.7 478.936 238.48 468.074Z" fill="#E4C6C6"/>
<path d="M289.265 413.895C279.836 412.811 270.381 412.838 260.9 412.891C260.848 413.868 260.795 414.82 260.717 415.798C270.25 415.745 279.758 415.719 289.239 416.802C295.499 417.516 301.785 418.388 308.044 418.652C308.071 417.701 308.097 416.749 308.123 415.798C301.837 415.534 295.499 414.635 289.265 413.895Z" fill="#E4C6C6"/>
<path d="M101.212 493.921C103.307 497.436 104.722 501.321 105.953 505.259C106.948 505.206 107.943 505.179 108.912 505.153C107.655 501.056 106.189 497.013 104.146 493.234C103.046 491.199 101.736 489.269 100.322 487.393C99.1693 487.472 98.043 487.551 96.8906 487.657C98.4621 489.666 99.9026 491.727 101.212 493.921Z" fill="#E4C6C6"/>
<path d="M86.5713 500.131C84.7641 497.489 82.7212 495.004 80.6259 492.573C79.9973 492.89 79.3687 493.207 78.7663 493.524C78.5044 493.656 78.2425 493.815 77.9806 493.947C79.8402 495.824 81.464 497.991 83.0093 500.105C84.7903 502.536 86.4927 505.153 87.8809 507.902C87.9594 507.875 88.0642 507.875 88.1428 507.849C89.0071 507.664 89.8976 507.479 90.7619 507.294C89.5833 504.783 88.1428 502.404 86.5713 500.131Z" fill="#E4C6C6"/>
<path d="M149.299 500.475C148.016 499.92 146.733 499.312 145.502 498.625C146.706 501.453 147.702 504.386 148.54 507.373C149.561 507.479 150.583 507.611 151.604 507.716C150.976 505.259 150.19 502.854 149.299 500.475Z" fill="#E4C6C6"/>
<path d="M285.887 449.468C276.222 444.922 267.16 439.214 258.176 433.452C257.941 434.43 257.679 435.434 257.417 436.386C266.453 442.147 275.541 447.829 285.284 452.349C290.627 454.833 296.18 456.947 301.889 458.374C302.204 457.449 302.492 456.524 302.78 455.599C296.939 454.172 291.308 452.005 285.887 449.468Z" fill="#E4C6C6"/>
<path d="M175.91 503.884C174.941 503.911 173.972 503.911 173.002 503.911C173.448 505.893 173.867 507.901 174.338 509.884C175.36 510.016 176.381 510.174 177.403 510.333C176.853 508.192 176.407 506.025 175.91 503.884Z" fill="#E4C6C6"/>
<path d="M130.599 505.708C128.346 500.792 125.858 495.982 123.527 491.066C122.296 488.476 120.515 486.204 118.734 483.957C117.818 484.406 116.875 484.776 115.879 485.12C117.556 487.234 119.232 489.296 120.489 491.542C122.506 495.084 124.182 498.916 125.963 502.589C126.434 503.567 126.906 504.545 127.351 505.523C128.451 505.549 129.525 505.629 130.599 505.708Z" fill="#E4C6C6"/>
<path d="M255.06 431.153C253.174 418.811 247.857 406.786 241.362 396.241C234.919 385.775 226.616 376.446 216.585 369.363C206.606 362.307 194.951 357.972 182.798 357.074C157.785 355.224 132.694 368.676 117.608 388.365C110.012 398.276 104.931 409.957 103.596 422.458C102.915 428.801 103.412 435.302 104.329 441.619C105.272 448.094 106.948 454.463 109.253 460.594C113.705 472.461 120.672 483.587 130.389 491.753C135.863 496.352 142.28 500.131 148.723 503.118C154.197 505.681 160.038 507.426 166.088 507.373C168.34 507.346 170.619 507.373 172.845 507.108C173.369 507.056 173.919 506.976 174.364 506.738C183.505 506.236 192.62 502.616 200.687 498.678C211.53 493.392 221.823 486.468 230.649 478.169C232.43 476.504 234.133 474.76 235.704 472.91C241.414 469.501 246.547 465.14 250.24 459.511C255.714 451.106 256.552 440.879 255.06 431.153Z" fill="#E4C6C6"/>
<path d="M255.06 431.153C253.174 418.811 247.857 406.786 241.362 396.241C234.919 385.775 226.616 376.446 216.585 369.363C206.606 362.307 194.951 357.972 182.798 357.074C157.785 355.224 132.694 368.676 117.608 388.365C110.012 398.276 104.931 409.957 103.596 422.458C102.915 428.801 103.412 435.302 104.329 441.619C105.272 448.094 106.948 454.463 109.253 460.594C113.705 472.461 120.672 483.587 130.389 491.753C135.863 496.352 142.28 500.131 148.723 503.118C154.197 505.681 160.038 507.426 166.088 507.373C168.34 507.346 170.619 507.373 172.845 507.108C173.369 507.056 173.919 506.976 174.364 506.738C183.505 506.236 192.62 502.616 200.687 498.678C211.53 493.392 221.823 486.468 230.649 478.169C232.43 476.504 234.133 474.76 235.704 472.91C241.414 469.501 246.547 465.14 250.24 459.511C255.714 451.106 256.552 440.879 255.06 431.153ZM247.883 457.819C245.028 462.365 241.047 465.959 236.621 468.919C236.123 468.602 235.521 468.629 235.023 469.21C234.63 469.686 234.238 470.161 233.845 470.637C231.409 472.064 228.868 473.306 226.354 474.443C221.404 476.636 216.244 478.354 211.058 479.861C205.899 481.367 200.713 482.794 195.317 483.164C174.705 484.565 152.626 473.756 142.882 454.991C137.959 445.477 136.728 433.822 140.028 423.594C143.275 413.551 150.871 405.226 159.854 400.02C168.628 394.919 179.315 392.884 189.084 396.082C193.693 397.589 198.015 400.364 201.289 403.984C203.987 406.997 206.108 410.591 207.811 414.265C209.565 418.071 210.901 422.194 211.425 426.369C211.87 429.937 211.765 433.822 210.142 437.099C208.492 440.456 205.349 442.279 201.787 443.046C196.81 444.103 190.97 443.257 186.962 439.901C182.405 436.095 181.698 428.906 185.548 424.334C186.91 422.722 188.874 421.401 191.022 421.48C193.379 421.586 194.217 424.334 194.532 426.264C194.846 428.114 197.622 427.321 197.308 425.497C196.915 423.119 195.946 420.872 193.903 419.498C192.253 418.388 190.053 418.414 188.246 419.022C183.531 420.581 180.624 425.471 180.205 430.254C179.681 436.095 182.85 441.275 187.827 444.024C192.463 446.587 198.225 446.957 203.306 445.715C207.051 444.816 210.351 442.544 212.315 439.161C214.227 435.857 214.646 431.866 214.437 428.14C213.939 419.683 210.299 411.12 205.27 404.407C199.272 396.399 189.843 391.907 179.943 391.669C169.493 391.431 159.304 395.871 151.342 402.478C143.249 409.164 137.225 418.784 135.732 429.303C134.187 440.191 136.78 451.371 142.725 460.541C154.197 478.328 176.748 488.08 197.465 485.913C202.913 485.358 208.203 483.798 213.442 482.213C218.313 480.733 223.132 479.041 227.794 476.98C222.137 482.239 215.694 486.759 209.173 490.723C199.167 496.828 187.853 502.298 176.093 503.646C175.307 503.726 174.548 503.805 173.762 503.831C173.683 503.805 173.605 503.778 173.526 503.752C173.107 503.646 172.767 503.699 172.479 503.884C171.117 503.911 169.781 503.858 168.445 503.699C167.764 503.62 167.319 503.99 167.162 504.466C166.245 504.466 165.328 504.492 164.412 504.492C161.347 504.492 158.231 503.646 155.35 502.695C151.657 501.479 148.147 499.735 144.768 497.858C138.849 494.555 133.192 490.828 128.373 485.992C123.92 481.526 120.201 476.346 117.136 470.822C110.798 459.484 107.21 446.508 106.398 433.531C106.005 427.215 106.398 420.978 107.865 414.794C109.332 408.741 111.767 402.98 114.884 397.642C127.351 376.182 151.526 360.747 176.329 359.902C188.665 359.479 200.739 362.941 211.268 369.337C221.692 375.679 230.335 384.771 237.092 394.919C244.007 405.306 249.428 417.172 251.864 429.461C253.776 439.081 253.252 449.336 247.883 457.819Z" fill="#333333"/>
<path d="M279.889 368.861C280.098 368.544 280.151 368.147 280.072 367.751C280.098 367.751 280.098 367.724 280.125 367.724C280.832 367.354 281.015 366.403 280.648 365.742C280.229 365.029 279.365 364.844 278.684 365.214C278.16 365.478 277.636 365.901 277.401 366.456C276.851 366.244 276.274 366.112 275.62 366.086C275.62 366.086 275.62 366.059 275.593 366.059C275.593 366.033 275.567 366.033 275.567 366.006C275.541 365.901 275.515 365.821 275.489 365.716C275.489 365.663 275.436 365.478 275.436 365.399C275.436 365.293 275.436 365.161 275.41 365.055C275.41 364.262 274.755 363.601 273.97 363.601C273.184 363.601 272.529 364.262 272.529 365.055C272.529 365.636 272.608 366.244 272.791 366.799C272.031 367.249 271.429 367.909 270.984 368.676C270.591 368.491 270.198 368.253 269.805 368.015C268.208 367.037 266.767 369.574 268.338 370.526C268.888 370.869 269.465 371.187 270.041 371.451C270.015 371.609 270.015 371.768 270.015 371.953C269.962 373.829 272.843 373.829 272.896 371.953C272.896 371.794 272.922 371.636 272.948 371.477C273.079 371.319 273.184 371.134 273.262 370.922C273.289 370.79 273.315 370.658 273.315 370.526C274.31 368.781 276.824 368.2 277.532 370.764C278.029 372.561 280.805 371.794 280.308 369.997C280.229 369.601 280.072 369.231 279.889 368.861Z" fill="#333333"/>
<path d="M298.458 362.227C298.065 361.566 297.149 361.276 296.494 361.699C295.892 362.095 295.237 362.439 294.582 362.756C294.503 362.809 294.425 362.861 294.346 362.914C293.875 362.703 293.351 362.544 292.827 362.491C292.827 362.465 292.801 362.412 292.801 362.386C292.801 362.386 292.801 362.333 292.775 362.227C292.775 362.121 292.749 362.016 292.749 361.91C292.722 361.566 292.722 361.196 292.722 360.853C292.722 360.06 292.068 359.399 291.282 359.399C290.496 359.399 289.841 360.06 289.841 360.853C289.841 361.566 289.868 362.254 289.972 362.967C289.003 363.443 288.244 364.209 287.694 365.108C287.667 365.108 287.667 365.108 287.641 365.081C287.458 365.029 287.275 364.949 287.091 364.87C287.039 364.844 286.856 364.764 286.803 364.738C286.672 364.659 286.541 364.579 286.41 364.5C285.756 364.077 284.813 364.368 284.446 365.029C284.027 365.742 284.315 366.588 284.97 367.011C285.52 367.381 286.175 367.619 286.803 367.83C286.777 367.989 286.777 368.147 286.777 368.306C286.725 370.182 289.606 370.182 289.658 368.306C289.737 365.557 293.403 363.892 294.294 367.116C294.791 368.914 297.568 368.147 297.07 366.35C296.939 365.874 296.756 365.425 296.52 365.029C297.018 364.791 297.489 364.526 297.961 364.209C298.589 363.786 298.851 362.941 298.458 362.227Z" fill="#333333"/>
<path d="M270.198 385.458C271.876 385.458 273.236 383.943 273.236 382.075C273.236 380.207 271.876 378.692 270.198 378.692C268.52 378.692 267.16 380.207 267.16 382.075C267.16 383.943 268.52 385.458 270.198 385.458Z" fill="#E4C6C6"/>
<path d="M300.161 382.101C301.839 382.101 303.199 380.587 303.199 378.719C303.199 376.85 301.839 375.336 300.161 375.336C298.483 375.336 297.123 376.85 297.123 378.719C297.123 380.587 298.483 382.101 300.161 382.101Z" fill="#E4C6C6"/>
<path d="M290.942 377.529C290.339 375.785 287.537 376.525 288.165 378.296C288.794 380.093 287.38 381.414 285.782 381.969C283.87 382.63 282.22 381.996 281.906 379.908C281.644 378.058 278.868 378.851 279.129 380.674C280.308 388.603 293.43 384.665 290.942 377.529Z" fill="#333333"/>
<path d="M270.093 339.155C269.098 334.292 267.16 328.24 263.1 325.069C259.774 322.452 254.195 322.611 252.467 326.998C251.576 329.271 252.545 332.548 254.169 334.239C255.898 335.984 258.438 335.111 259.617 333.235C260.664 331.57 260.193 329.35 258.7 328.134C257.286 326.945 255.217 329.006 256.657 330.196C257.102 330.566 257.469 330.989 257.207 331.596C257.05 331.94 256.736 332.389 256.343 332.284C255.583 332.099 255.269 330.486 255.138 329.879C254.955 329.112 254.981 328.24 255.348 327.553C255.976 326.39 257.469 326.179 258.648 326.258C260.403 326.39 261.633 327.579 262.681 328.848C265.51 332.257 266.767 337.094 267.527 341.375C268.286 345.63 268.6 350.414 267.265 354.563C266.688 356.36 269.465 357.1 270.041 355.329C271.743 350.202 271.167 344.335 270.093 339.155Z" fill="#333333"/>
<path d="M294.11 327.579C293.56 325.359 291.334 324.038 289.291 323.509C287.065 322.928 284.524 323.166 282.508 324.329C280.543 325.439 279.417 327.817 278.789 329.905C277.322 334.926 278.291 340.714 279.601 345.683C280.098 347.612 280.779 349.489 281.591 351.312C282.377 353.004 284.839 351.524 284.079 349.832C282.482 346.344 281.591 342.432 281.172 338.626C280.779 335.032 280.648 330.249 283.294 327.421C285.075 325.518 290.365 325.439 291.308 328.346C291.727 329.641 290.81 331.596 289.37 331.596C288.322 331.623 287.222 330.777 288.27 329.984C289.737 328.874 288.296 326.337 286.803 327.474C284.917 328.901 284.236 331.041 285.86 332.997C287.248 334.636 289.789 334.847 291.596 333.949C293.77 332.891 294.687 329.773 294.11 327.579Z" fill="#333333"/>
<path d="M145.371 483.481C143.511 483.481 143.511 486.389 145.371 486.389C147.23 486.389 147.23 483.481 145.371 483.481Z" fill="#333333"/>
<path d="M127.142 465.299L126.749 464.902C126.199 464.347 125.256 464.347 124.706 464.902C124.156 465.457 124.156 466.409 124.706 466.964L125.099 467.36C125.649 467.915 126.592 467.915 127.142 467.36C127.692 466.779 127.692 465.854 127.142 465.299Z" fill="#333333"/>
<path d="M124.391 414.159L123.998 413.763C123.448 413.208 122.506 413.208 121.956 413.763C121.406 414.318 121.406 415.269 121.956 415.824L122.348 416.221C122.898 416.776 123.841 416.776 124.391 416.221C124.941 415.639 124.941 414.714 124.391 414.159Z" fill="#333333"/>
<path d="M147.335 380.833H146.942C146.156 380.833 145.502 381.494 145.502 382.286C145.502 383.079 146.156 383.74 146.942 383.74H147.335C148.121 383.74 148.776 383.079 148.776 382.286C148.776 381.494 148.121 380.833 147.335 380.833Z" fill="#333333"/>
<path d="M194.479 368.544H194.086C193.301 368.544 192.646 369.204 192.646 369.997C192.646 370.79 193.301 371.451 194.086 371.451H194.479C195.265 371.451 195.92 370.79 195.92 369.997C195.92 369.204 195.265 368.544 194.479 368.544Z" fill="#333333"/>
<path d="M167.371 412.151H165.8C165.014 412.151 164.359 412.811 164.359 413.604C164.359 414.397 165.014 415.058 165.8 415.058H167.371C168.157 415.058 168.812 414.397 168.812 413.604C168.812 412.811 168.157 412.151 167.371 412.151Z" fill="#333333"/>
<path d="M189.765 406.601C187.905 406.601 187.905 409.508 189.765 409.508C191.624 409.508 191.624 406.601 189.765 406.601Z" fill="#333333"/>
<path d="M164.778 457.185C164.517 457.026 164.15 456.921 163.836 456.921C163.05 456.921 162.395 457.581 162.395 458.374C162.395 458.876 162.657 459.326 163.05 459.59C163.312 459.986 163.731 460.224 164.228 460.224C164.988 460.224 165.695 459.564 165.669 458.771C165.643 458.11 165.355 457.529 164.778 457.185Z" fill="#333333"/>
<path d="M199.586 467.624C197.727 467.624 197.727 470.531 199.586 470.531C201.446 470.531 201.446 467.624 199.586 467.624Z" fill="#333333"/>
<path d="M182.3 493.392C181.2 493.419 180.126 493.841 179.314 494.608C178.738 495.163 178.764 496.114 179.314 496.669C179.89 497.251 180.781 497.224 181.357 496.669C181.383 496.643 181.383 496.643 181.41 496.616C181.514 496.537 181.645 496.484 181.776 496.405C181.671 496.458 181.986 496.352 182.012 496.326C182.064 496.299 182.117 496.299 182.169 496.299C182.169 496.299 182.221 496.299 182.3 496.299C183.086 496.273 183.741 495.665 183.741 494.846C183.741 494.079 183.086 493.392 182.3 493.392Z" fill="#333333"/>
<path d="M237.695 449.415C235.835 449.415 235.835 452.322 237.695 452.322C239.554 452.322 239.554 449.415 237.695 449.415Z" fill="#333333"/>
<path d="M229.445 430.783H226.694C224.835 430.783 224.835 433.69 226.694 433.69H229.445C231.304 433.69 231.304 430.783 229.445 430.783Z" fill="#333333"/>
<path d="M235.73 409.376H234.945C234.159 409.376 233.504 410.036 233.504 410.829C233.504 411.622 234.159 412.283 234.945 412.283H235.73C236.516 412.283 237.171 411.622 237.171 410.829C237.171 410.036 236.516 409.376 235.73 409.376Z" fill="#333333"/>
<path d="M214.437 391.933C214.54 391.801 214.489 391.854 214.437 391.933V391.933Z" fill="#333333"/>
<path d="M214.411 391.959C214.411 391.959 214.411 391.933 214.437 391.933C214.437 391.933 214.437 391.933 214.437 391.906C214.882 391.325 214.882 390.506 214.358 389.977C213.834 389.449 212.839 389.396 212.315 389.977C211.661 390.717 211.503 391.642 211.503 392.594C211.503 393.386 212.158 394.047 212.944 394.047C213.73 394.047 214.384 393.386 214.384 392.594C214.384 392.514 214.384 392.409 214.384 392.329C214.384 392.276 214.411 392.144 214.411 392.065C214.411 392.012 214.437 391.986 214.411 391.959C214.411 391.959 214.437 391.933 214.411 391.959Z" fill="#333333"/>
<path d="M176.276 373.961C176.276 373.169 175.622 372.508 174.836 372.508C174.338 372.508 173.867 372.64 173.5 372.984C173.002 373.459 172.924 374.279 173.264 374.86C173.474 375.177 173.762 375.441 174.102 375.626C174.469 375.811 174.81 375.891 175.203 375.785C175.569 375.679 175.884 375.441 176.067 375.124C176.224 374.86 176.276 374.543 176.25 374.226C176.276 374.12 176.276 374.041 176.276 373.961Z" fill="#333333"/>
<path d="M156.607 443.521C156.502 442.834 155.9 442.279 155.192 442.279C154.407 442.279 153.752 442.94 153.752 443.733C153.752 444.05 153.752 444.42 153.883 444.711C153.935 444.843 153.988 445.028 154.066 445.134C154.302 445.451 154.302 445.477 154.616 445.689C154.878 445.9 155.245 445.953 155.585 445.953C156.371 445.979 157.026 445.266 157.026 444.499C157.026 444.103 156.869 443.759 156.607 443.521Z" fill="#333333"/>
<path d="M168.681 385.247C171.067 385.247 173.002 383.294 173.002 380.886C173.002 378.477 171.067 376.525 168.681 376.525C166.294 376.525 164.359 378.477 164.359 380.886C164.359 383.294 166.294 385.247 168.681 385.247Z" fill="white"/>
<path d="M134.92 403.271C137.307 403.271 139.242 401.318 139.242 398.91C139.242 396.502 137.307 394.549 134.92 394.549C132.534 394.549 130.599 396.502 130.599 398.91C130.599 401.318 132.534 403.271 134.92 403.271Z" fill="white"/>
<path d="M120.201 440.852C122.587 440.852 124.522 438.9 124.522 436.491C124.522 434.083 122.587 432.131 120.201 432.131C117.814 432.131 115.879 434.083 115.879 436.491C115.879 438.9 117.814 440.852 120.201 440.852Z" fill="white"/>
<path d="M159.697 435.144C162.084 435.144 164.019 433.191 164.019 430.783C164.019 428.375 162.084 426.422 159.697 426.422C157.31 426.422 155.375 428.375 155.375 430.783C155.375 433.191 157.31 435.144 159.697 435.144Z" fill="white"/>
<path d="M183.741 462.735C186.127 462.735 188.062 460.783 188.062 458.374C188.062 455.966 186.127 454.014 183.741 454.014C181.354 454.014 179.419 455.966 179.419 458.374C179.419 460.783 181.354 462.735 183.741 462.735Z" fill="white"/>
<path d="M162.395 496.934C164.781 496.934 166.716 494.981 166.716 492.573C166.716 490.165 164.781 488.212 162.395 488.212C160.008 488.212 158.073 490.165 158.073 492.573C158.073 494.981 160.008 496.934 162.395 496.934Z" fill="white"/>
<path d="M225.306 461.308C227.693 461.308 229.628 459.356 229.628 456.947C229.628 454.539 227.693 452.587 225.306 452.587C222.919 452.587 220.985 454.539 220.985 456.947C220.985 459.356 222.919 461.308 225.306 461.308Z" fill="white"/>
<path d="M216.663 413.869C219.05 413.869 220.985 411.916 220.985 409.508C220.985 407.1 219.05 405.147 216.663 405.147C214.276 405.147 212.342 407.1 212.342 409.508C212.342 411.916 214.276 413.869 216.663 413.869Z" fill="white"/>
<path d="M198.198 388.101C200.585 388.101 202.52 386.148 202.52 383.74C202.52 381.332 200.585 379.379 198.198 379.379C195.812 379.379 193.877 381.332 193.877 383.74C193.877 386.148 195.812 388.101 198.198 388.101Z" fill="white"/>
<path d="M312.34 371.715C315.221 361.355 321.926 350.731 332.847 347.744C338.688 346.159 344.633 347.982 349.191 351.814C353.8 355.699 356.498 361.54 357.205 367.46C357.651 371.213 357.074 375.177 356.917 378.93C356.734 383.185 356.55 387.414 356.446 391.669C356.236 400.126 356.289 408.609 356.891 417.066C357.808 429.937 360.82 442.544 367.446 453.696C370.694 459.167 374.78 464.083 379.415 468.444C384.916 473.624 391.306 477.879 397.383 482.319C404.219 487.314 411.238 491.833 418.65 495.929C424.176 498.995 430.2 502.695 436.565 503.805C440.886 503.911 445.182 504.016 449.503 503.805C452.515 503.646 455.475 503.276 458.382 502.536C461.001 501.876 463.594 501.215 466.292 501.321C469.356 500.158 472.316 498.651 475.171 496.854C478.706 494.581 481.823 491.78 484.992 489.031C487.376 486.97 489.812 484.618 492.535 482.926C491.776 481.631 493.609 479.993 494.84 481.209C499.031 485.331 505.5 486.336 511.053 486.97C515.977 487.525 521.058 487.366 525.903 488.582C530.356 489.692 534.756 491.384 538.815 493.577C542.456 495.533 546.516 498.334 547.799 502.51C548.297 504.149 548.244 506.316 547.17 507.716C546.201 508.959 544.473 509.276 542.98 509.461C538.527 509.963 533.76 508.8 529.439 507.901C527.265 507.452 525.117 506.95 522.943 506.474C520.639 505.972 518.412 505.708 516.055 505.549C507.595 504.941 499.083 505.074 490.623 505.523C479.859 506.104 469.147 507.346 458.461 508.641C458.356 508.668 458.251 508.641 458.146 508.641C455.815 509.196 453.379 509.223 450.944 509.249C443.191 509.408 435.569 511.39 427.843 512.209C415.245 513.557 402.49 513.108 389.97 511.205C367.394 507.769 343.638 499.048 328.29 481.235C319.621 471.166 314.959 458.533 312.366 445.609C309.642 432.051 309.354 418.282 309.301 404.486C309.197 393.519 309.38 382.313 312.34 371.715Z" fill="#92A6C1"/>
<path d="M357.362 369.865C357.336 369.865 357.284 369.865 357.257 369.865C354.9 369.786 352.622 369.204 350.317 368.808C347.802 368.359 345.288 368.041 342.747 367.698C333.738 366.561 324.571 365.663 315.98 362.597C316.451 361.725 316.923 360.879 317.447 360.033C325.906 362.914 334.838 363.76 343.69 364.896C346.152 365.214 348.64 365.557 351.076 365.98C353.119 366.324 355.084 366.773 357.153 366.905C357.179 367.09 357.205 367.249 357.231 367.434C357.284 368.253 357.336 369.046 357.362 369.865Z" fill="#A7DCD2"/>
<path d="M328.735 481.79C335.074 478.566 341.281 475.051 347.253 471.166C354.665 466.329 361.658 460.938 368.284 455.071C368.808 455.89 369.332 456.709 369.882 457.502C363.308 463.29 356.367 468.629 349.034 473.439C343.141 477.324 337.012 480.812 330.752 484.01C330.097 483.296 329.416 482.556 328.735 481.79Z" fill="#A7DCD2"/>
<path d="M407.126 491.569C407.388 490.881 407.702 490.221 407.99 489.56C408.802 490.089 409.614 490.591 410.426 491.093C410.243 491.489 410.059 491.912 409.902 492.335C407.178 498.889 405.738 505.866 403.826 512.685C402.857 512.632 401.861 512.553 400.892 512.474C402.883 505.47 404.376 498.308 407.126 491.569Z" fill="#A7DCD2"/>
<path d="M376.482 508.351C379.887 497.515 385.571 487.684 391.647 478.196C392.433 478.751 393.218 479.306 393.978 479.887C388.059 489.111 382.559 498.625 379.232 509.144V509.17C378.289 508.959 377.373 508.721 376.43 508.483C376.456 508.43 376.482 508.404 376.482 508.351Z" fill="#A7DCD2"/>
<path d="M334.131 390.004C339.369 390.479 344.581 391.008 349.819 391.378C351.993 391.536 354.219 391.669 356.419 391.642V391.669C356.393 392.62 356.367 393.571 356.367 394.523C354.455 394.549 352.543 394.444 350.684 394.338C345.314 393.994 339.971 393.439 334.628 392.937C326.247 392.171 317.84 391.616 309.511 390.559C309.563 389.607 309.616 388.629 309.694 387.678C317.814 388.735 325.985 389.264 334.131 390.004Z" fill="#A7DCD2"/>
<path d="M379.049 468.074C379.18 468.179 379.284 468.312 379.415 468.417C379.992 468.946 380.568 469.474 381.17 470.003C372.108 480.654 361.553 489.93 350.684 498.784C349.767 498.308 348.876 497.806 347.986 497.277C359.012 488.318 369.829 478.936 379.049 468.074Z" fill="#A7DCD2"/>
<path d="M328.264 413.895C337.693 412.811 347.148 412.838 356.629 412.891C356.681 413.868 356.734 414.82 356.812 415.798C347.279 415.745 337.771 415.719 328.29 416.802C322.03 417.516 315.745 418.388 309.485 418.652C309.459 417.701 309.432 416.749 309.406 415.798C315.692 415.534 322.03 414.635 328.264 413.895Z" fill="#A7DCD2"/>
<path d="M516.317 493.921C514.222 497.436 512.807 501.321 511.576 505.259C510.581 505.206 509.586 505.179 508.617 505.153C509.874 501.056 511.341 497.013 513.383 493.234C514.484 491.199 515.793 489.269 517.207 487.393C518.36 487.472 519.486 487.551 520.638 487.657C519.067 489.666 517.627 491.727 516.317 493.921Z" fill="#A7DCD2"/>
<path d="M530.958 500.131C532.765 497.489 534.808 495.004 536.903 492.573C537.532 492.89 538.161 493.207 538.763 493.524C539.025 493.656 539.287 493.815 539.549 493.947C537.689 495.824 536.065 497.991 534.52 500.105C532.739 502.536 531.037 505.153 529.648 507.902C529.57 507.875 529.465 507.875 529.386 507.849C528.522 507.664 527.632 507.479 526.767 507.294C527.946 504.783 529.386 502.404 530.958 500.131Z" fill="#A7DCD2"/>
<path d="M468.23 500.475C469.513 499.92 470.797 499.312 472.028 498.625C470.823 501.453 469.828 504.386 468.989 507.373C467.968 507.479 466.947 507.611 465.925 507.716C466.554 505.259 467.339 502.854 468.23 500.475Z" fill="#A7DCD2"/>
<path d="M331.643 449.468C341.307 444.922 350.369 439.214 359.353 433.452C359.589 434.43 359.851 435.434 360.112 436.386C351.076 442.147 341.988 447.829 332.245 452.349C326.902 454.833 321.349 456.947 315.64 458.374C315.325 457.449 315.037 456.524 314.749 455.599C320.59 454.172 326.221 452.005 331.643 449.468Z" fill="#A7DCD2"/>
<path d="M441.619 503.884C442.588 503.911 443.558 503.911 444.527 503.911C444.081 505.893 443.662 507.901 443.191 509.884C442.169 510.016 441.148 510.174 440.126 510.333C440.676 508.192 441.122 506.025 441.619 503.884Z" fill="#A7DCD2"/>
<path d="M486.93 505.708C489.183 500.792 491.671 495.982 494.002 491.066C495.233 488.476 497.014 486.204 498.795 483.957C499.712 484.406 500.655 484.776 501.65 485.12C499.974 487.234 498.297 489.296 497.04 491.542C495.024 495.084 493.347 498.916 491.566 502.589C491.095 503.567 490.623 504.545 490.178 505.523C489.078 505.549 488.004 505.629 486.93 505.708Z" fill="#A7DCD2"/>
<path d="M367.289 459.484C370.982 465.114 376.116 469.474 381.825 472.884C383.423 474.734 385.125 476.478 386.88 478.143C395.707 486.442 405.974 493.366 416.843 498.652C424.91 502.563 434.024 506.21 443.165 506.712C443.61 506.95 444.16 507.029 444.684 507.082C446.91 507.347 449.189 507.32 451.442 507.347C457.518 507.399 463.332 505.655 468.806 503.091C475.249 500.079 481.666 496.299 487.14 491.727C496.857 483.561 503.85 472.434 508.277 460.568C510.581 454.437 512.258 448.067 513.201 441.592C514.117 435.302 514.615 428.801 513.934 422.432C512.598 409.931 507.517 398.249 499.922 388.339C484.835 368.649 459.744 355.197 434.732 357.047C422.579 357.946 410.898 362.28 400.945 369.337C390.94 376.419 382.611 385.749 376.168 396.214C369.672 406.759 364.356 418.784 362.47 431.127C360.977 440.879 361.815 451.107 367.289 459.484Z" fill="#A7DCD2"/>
<path d="M367.289 459.484C370.982 465.114 376.116 469.474 381.825 472.884C383.423 474.734 385.125 476.478 386.88 478.143C395.707 486.442 405.974 493.366 416.843 498.652C424.91 502.563 434.024 506.21 443.165 506.712C443.61 506.95 444.16 507.029 444.684 507.082C446.91 507.347 449.189 507.32 451.442 507.347C457.518 507.399 463.332 505.655 468.806 503.091C475.249 500.079 481.666 496.299 487.14 491.727C496.857 483.561 503.85 472.434 508.277 460.568C510.581 454.437 512.258 448.067 513.201 441.592C514.117 435.302 514.615 428.801 513.934 422.432C512.598 409.931 507.517 398.249 499.922 388.339C484.835 368.649 459.744 355.197 434.732 357.047C422.579 357.946 410.898 362.28 400.945 369.337C390.94 376.419 382.611 385.749 376.168 396.214C369.672 406.759 364.356 418.784 362.47 431.127C360.977 440.879 361.815 451.107 367.289 459.484ZM365.691 429.409C368.127 417.119 373.549 405.227 380.463 394.867C387.221 384.718 395.864 375.627 406.288 369.284C416.817 362.862 428.891 359.426 441.227 359.849C466.03 360.694 490.178 376.129 502.672 397.589C505.788 402.954 508.224 408.715 509.691 414.741C511.184 420.899 511.577 427.136 511.158 433.479C510.346 446.455 506.757 459.432 500.419 470.769C497.329 476.293 493.636 481.473 489.183 485.939C484.364 490.776 478.707 494.502 472.787 497.806C469.383 499.709 465.899 501.453 462.206 502.642C459.325 503.594 456.208 504.439 453.144 504.439C452.227 504.439 451.311 504.439 450.394 504.413C450.211 503.937 449.792 503.567 449.111 503.647C447.775 503.779 446.413 503.832 445.077 503.832C444.789 503.673 444.422 503.594 444.029 503.699C443.951 503.726 443.872 503.752 443.794 503.779C443.008 503.726 442.248 503.673 441.463 503.594C429.729 502.246 418.388 496.775 408.383 490.67C401.888 486.706 395.445 482.187 389.761 476.927C394.423 478.989 399.242 480.707 404.114 482.16C409.352 483.719 414.643 485.279 420.091 485.86C440.808 488.027 463.332 478.275 474.83 460.489C480.75 451.292 483.369 440.139 481.823 429.25C480.33 418.732 474.28 409.112 466.213 402.425C458.225 395.818 448.063 391.352 437.613 391.616C427.712 391.854 418.283 396.347 412.286 404.354C407.257 411.067 403.643 419.63 403.119 428.087C402.883 431.84 403.328 435.831 405.24 439.108C407.205 442.491 410.478 444.764 414.25 445.662C419.331 446.878 425.093 446.534 429.729 443.971C434.705 441.222 437.901 436.042 437.351 430.202C436.905 425.418 434.024 420.529 429.31 418.969C427.503 418.362 425.303 418.335 423.653 419.445C421.61 420.819 420.641 423.066 420.248 425.444C419.934 427.268 422.71 428.061 423.024 426.211C423.338 424.282 424.176 421.533 426.534 421.427C428.708 421.348 430.646 422.669 432.008 424.282C435.884 428.854 435.151 436.042 430.593 439.848C426.612 443.204 420.745 444.05 415.769 442.993C412.233 442.253 409.09 440.403 407.414 437.047C405.79 433.769 405.685 429.884 406.131 426.317C406.655 422.141 407.964 417.992 409.745 414.212C411.448 410.539 413.543 406.944 416.267 403.932C419.514 400.311 423.862 397.536 428.472 396.029C438.241 392.832 448.927 394.893 457.701 399.967C466.685 405.174 474.28 413.499 477.528 423.542C480.854 433.769 479.597 445.424 474.673 454.939C464.956 473.703 442.877 484.512 422.238 483.112C416.843 482.742 411.657 481.341 406.497 479.808C401.312 478.302 396.152 476.584 391.202 474.39C388.661 473.254 386.147 472.012 383.711 470.584C383.318 470.109 382.925 469.633 382.532 469.157C382.061 468.549 381.432 468.549 380.935 468.867C376.508 465.933 372.527 462.312 369.672 457.767C364.277 449.336 363.753 439.082 365.691 429.409Z" fill="#333333"/>
<path d="M337.195 369.997C337.955 367.249 340.233 365.716 343.036 366.191C345.76 366.641 347.41 369.363 347.488 371.979C347.541 373.856 344.66 373.856 344.607 371.979C344.529 369.231 340.862 367.566 339.971 370.79C339.474 372.561 336.698 371.794 337.195 369.997Z" fill="#333333"/>
<path d="M320.485 366.35C321.245 363.601 323.523 362.069 326.326 362.544C329.05 362.994 330.7 365.716 330.778 368.332C330.831 370.208 327.95 370.208 327.897 368.332C327.819 365.584 324.152 363.919 323.261 367.143C322.764 368.94 319.988 368.173 320.485 366.35Z" fill="#333333"/>
<path d="M347.331 385.458C349.009 385.458 350.369 383.943 350.369 382.075C350.369 380.207 349.009 378.692 347.331 378.692C345.653 378.692 344.293 380.207 344.293 382.075C344.293 383.943 345.653 385.458 347.331 385.458Z" fill="#E4C6C6"/>
<path d="M317.368 382.101C319.046 382.101 320.406 380.587 320.406 378.719C320.406 376.85 319.046 375.336 317.368 375.336C315.69 375.336 314.33 376.85 314.33 378.719C314.33 380.587 315.69 382.101 317.368 382.101Z" fill="#E4C6C6"/>
<path d="M326.588 377.529C327.19 375.785 329.993 376.525 329.364 378.296C328.735 380.093 330.15 381.414 331.747 381.969C333.659 382.63 335.309 381.996 335.624 379.908C335.886 378.058 338.662 378.851 338.4 380.674C337.221 388.603 324.1 384.665 326.588 377.529Z" fill="#333333"/>
<path d="M347.436 339.155C348.431 334.292 350.369 328.24 354.429 325.069C357.755 322.452 363.334 322.611 365.063 326.998C365.953 329.271 364.984 332.548 363.36 334.239C361.632 335.984 359.091 335.111 357.913 333.235C356.865 331.57 357.336 329.35 358.829 328.134C360.244 326.945 362.313 329.006 360.872 330.196C360.427 330.566 360.06 330.989 360.322 331.596C360.479 331.94 360.794 332.389 361.186 332.284C361.946 332.099 362.26 330.486 362.391 329.879C362.575 329.112 362.548 328.24 362.182 327.553C361.553 326.39 360.06 326.179 358.882 326.258C357.127 326.39 355.896 327.579 354.848 328.848C352.02 332.257 350.762 337.094 350.003 341.375C349.243 345.63 348.929 350.414 350.265 354.563C350.841 356.36 348.065 357.1 347.488 355.329C345.786 350.202 346.362 344.335 347.436 339.155Z" fill="#333333"/>
<path d="M323.419 327.579C323.969 325.359 326.195 324.038 328.238 323.509C330.464 322.928 333.005 323.166 335.021 324.329C336.986 325.439 338.112 327.817 338.74 329.905C340.207 334.926 339.238 340.714 337.928 345.683C337.431 347.612 336.75 349.489 335.938 351.312C335.152 353.004 332.69 351.524 333.45 349.832C335.047 346.344 335.938 342.432 336.357 338.626C336.75 335.032 336.881 330.249 334.235 327.421C332.454 325.518 327.164 325.439 326.221 328.346C325.802 329.641 326.719 331.596 328.159 331.596C329.207 331.623 330.307 330.777 329.259 329.984C327.792 328.874 329.233 326.337 330.726 327.474C332.612 328.901 333.293 331.041 331.669 332.997C330.281 334.636 327.74 334.847 325.933 333.949C323.759 332.891 322.842 329.773 323.419 327.579Z" fill="#333333"/>
<path d="M472.159 483.481C474.018 483.481 474.018 486.389 472.159 486.389C470.299 486.389 470.299 483.481 472.159 483.481Z" fill="#333333"/>
<path d="M490.388 465.299L490.781 464.902C491.331 464.347 492.274 464.347 492.824 464.902C493.374 465.457 493.374 466.409 492.824 466.964L492.431 467.36C491.881 467.915 490.938 467.915 490.388 467.36C489.838 466.779 489.838 465.854 490.388 465.299Z" fill="#333333"/>
<path d="M493.138 414.159L493.531 413.763C494.081 413.208 495.024 413.208 495.574 413.763C496.124 414.318 496.124 415.269 495.574 415.824L495.181 416.221C494.631 416.776 493.688 416.776 493.138 416.221C492.588 415.639 492.588 414.714 493.138 414.159Z" fill="#333333"/>
<path d="M470.194 380.833H470.587C471.373 380.833 472.028 381.494 472.028 382.286C472.028 383.079 471.373 383.74 470.587 383.74H470.194C469.408 383.74 468.754 383.079 468.754 382.286C468.754 381.494 469.408 380.833 470.194 380.833Z" fill="#333333"/>
<path d="M423.05 368.544H423.443C424.229 368.544 424.884 369.204 424.884 369.997C424.884 370.79 424.229 371.451 423.443 371.451H423.05C422.264 371.451 421.61 370.79 421.61 369.997C421.61 369.204 422.264 368.544 423.05 368.544Z" fill="#333333"/>
<path d="M450.158 412.151H451.729C452.515 412.151 453.17 412.811 453.17 413.604C453.17 414.397 452.515 415.058 451.729 415.058H450.158C449.372 415.058 448.717 414.397 448.717 413.604C448.717 412.811 449.372 412.151 450.158 412.151Z" fill="#333333"/>
<path d="M427.765 406.601C429.624 406.601 429.624 409.508 427.765 409.508C425.905 409.508 425.905 406.601 427.765 406.601Z" fill="#333333"/>
<path d="M452.751 457.185C453.013 457.026 453.38 456.921 453.694 456.921C454.48 456.921 455.135 457.581 455.135 458.374C455.135 458.876 454.873 459.326 454.48 459.59C454.218 459.986 453.799 460.224 453.301 460.224C452.542 460.224 451.834 459.564 451.861 458.771C451.887 458.11 452.175 457.529 452.751 457.185Z" fill="#333333"/>
<path d="M417.943 467.624C419.802 467.624 419.802 470.531 417.943 470.531C416.083 470.531 416.083 467.624 417.943 467.624Z" fill="#333333"/>
<path d="M435.229 493.392C436.329 493.419 437.403 493.841 438.215 494.608C438.791 495.163 438.765 496.114 438.215 496.669C437.639 497.251 436.748 497.224 436.172 496.669C436.146 496.643 436.146 496.643 436.119 496.616C436.015 496.537 435.884 496.484 435.753 496.405C435.858 496.458 435.543 496.352 435.517 496.326C435.465 496.299 435.412 496.299 435.36 496.299C435.36 496.299 435.307 496.299 435.229 496.299C434.443 496.273 433.788 495.665 433.788 494.846C433.788 494.079 434.443 493.392 435.229 493.392Z" fill="#333333"/>
<path d="M379.835 449.415C381.694 449.415 381.694 452.322 379.835 452.322C377.975 452.322 377.975 449.415 379.835 449.415Z" fill="#333333"/>
<path d="M388.085 430.783H390.835C392.694 430.783 392.694 433.69 390.835 433.69H388.085C386.225 433.69 386.225 430.783 388.085 430.783Z" fill="#333333"/>
<path d="M381.799 409.376H382.585C383.37 409.376 384.025 410.036 384.025 410.829C384.025 411.622 383.37 412.283 382.585 412.283H381.799C381.013 412.283 380.358 411.622 380.358 410.829C380.358 410.036 381.013 409.376 381.799 409.376Z" fill="#333333"/>
<path d="M403.092 391.933C402.988 391.801 403.04 391.854 403.092 391.933V391.933Z" fill="#333333"/>
<path d="M403.093 391.933C403.093 391.959 403.119 392.012 403.119 392.039C403.119 392.118 403.145 392.25 403.145 392.303C403.145 392.382 403.145 392.488 403.145 392.567C403.145 393.36 403.8 394.021 404.585 394.021C405.371 394.021 406.026 393.36 406.026 392.567C406.026 391.616 405.869 390.691 405.214 389.951C404.69 389.369 403.721 389.422 403.171 389.951C402.647 390.506 402.647 391.325 403.093 391.933C403.093 391.933 403.093 391.906 403.093 391.933C403.093 391.933 403.093 391.959 403.093 391.933Z" fill="#333333"/>
<path d="M441.253 373.961C441.253 373.169 441.908 372.508 442.693 372.508C443.191 372.508 443.662 372.64 444.029 372.984C444.527 373.459 444.605 374.279 444.265 374.86C444.055 375.177 443.767 375.441 443.427 375.626C443.06 375.811 442.72 375.891 442.327 375.785C441.96 375.679 441.646 375.441 441.462 375.124C441.305 374.86 441.253 374.543 441.279 374.226C441.253 374.12 441.253 374.041 441.253 373.961Z" fill="#333333"/>
<path d="M460.922 443.521C461.027 442.834 461.63 442.279 462.337 442.279C463.123 442.279 463.777 442.94 463.777 443.733C463.777 444.05 463.777 444.42 463.646 444.711C463.594 444.843 463.542 445.028 463.463 445.134C463.227 445.451 463.227 445.477 462.913 445.689C462.651 445.9 462.284 445.953 461.944 445.953C461.158 445.979 460.503 445.266 460.503 444.499C460.503 444.103 460.661 443.759 460.922 443.521Z" fill="#333333"/>
<path d="M448.848 385.247C451.235 385.247 453.17 383.294 453.17 380.886C453.17 378.477 451.235 376.525 448.848 376.525C446.462 376.525 444.527 378.477 444.527 380.886C444.527 383.294 446.462 385.247 448.848 385.247Z" fill="white"/>
<path d="M482.609 403.271C484.996 403.271 486.931 401.318 486.931 398.91C486.931 396.502 484.996 394.549 482.609 394.549C480.222 394.549 478.287 396.502 478.287 398.91C478.287 401.318 480.222 403.271 482.609 403.271Z" fill="white"/>
<path d="M497.328 440.852C499.715 440.852 501.65 438.9 501.65 436.491C501.65 434.083 499.715 432.131 497.328 432.131C494.942 432.131 493.007 434.083 493.007 436.491C493.007 438.9 494.942 440.852 497.328 440.852Z" fill="white"/>
<path d="M457.832 435.144C460.218 435.144 462.153 433.191 462.153 430.783C462.153 428.375 460.218 426.422 457.832 426.422C455.445 426.422 453.51 428.375 453.51 430.783C453.51 433.191 455.445 435.144 457.832 435.144Z" fill="white"/>
<path d="M433.788 462.735C436.175 462.735 438.11 460.783 438.11 458.374C438.11 455.966 436.175 454.014 433.788 454.014C431.402 454.014 429.467 455.966 429.467 458.374C429.467 460.783 431.402 462.735 433.788 462.735Z" fill="white"/>
<path d="M455.134 496.934C457.521 496.934 459.456 494.981 459.456 492.573C459.456 490.165 457.521 488.212 455.134 488.212C452.748 488.212 450.813 490.165 450.813 492.573C450.813 494.981 452.748 496.934 455.134 496.934Z" fill="white"/>
<path d="M392.223 461.308C394.61 461.308 396.545 459.356 396.545 456.947C396.545 454.539 394.61 452.587 392.223 452.587C389.836 452.587 387.902 454.539 387.902 456.947C387.902 459.356 389.836 461.308 392.223 461.308Z" fill="white"/>
<path d="M400.866 413.869C403.253 413.869 405.188 411.916 405.188 409.508C405.188 407.1 403.253 405.147 400.866 405.147C398.479 405.147 396.544 407.1 396.544 409.508C396.544 411.916 398.479 413.869 400.866 413.869Z" fill="white"/>
<path d="M419.331 388.101C421.718 388.101 423.652 386.148 423.652 383.74C423.652 381.332 421.718 379.379 419.331 379.379C416.944 379.379 415.009 381.332 415.009 383.74C415.009 386.148 416.944 388.101 419.331 388.101Z" fill="white"/>
<path d="M56.3204 505.946C45.6605 503.514 34.6602 505.1 23.8694 505.126C22.6908 505.126 22.6908 506.976 23.8694 506.976C34.5031 506.95 45.3462 505.364 55.8489 507.743C57.0013 508.007 57.4728 506.21 56.3204 505.946Z" fill="#333333"/>
<path d="M62.1348 498.81C56.2418 499.629 50.244 499.576 44.2986 499.576C43.12 499.576 43.12 501.426 44.2986 501.426C50.4012 501.426 56.5561 501.453 62.6063 500.607C63.7849 500.422 63.2873 498.651 62.1348 498.81Z" fill="#333333"/>
<path d="M581.638 515.989C570.978 513.557 559.978 515.143 549.187 515.169C548.009 515.169 548.009 517.019 549.187 517.019C559.821 516.993 570.664 515.407 581.167 517.786C582.293 518.024 582.79 516.253 581.638 515.989Z" fill="#333333"/>
<path d="M587.427 508.853C581.534 509.672 575.536 509.619 569.59 509.619C568.412 509.619 568.412 511.469 569.59 511.469C575.693 511.469 581.848 511.496 587.898 510.65C589.103 510.465 588.579 508.694 587.427 508.853Z" fill="#333333"/>
<path d="M201.263 574.422C190.603 571.991 179.602 573.576 168.812 573.603C167.633 573.603 167.633 575.453 168.812 575.453C179.445 575.426 190.289 573.841 200.791 576.219C201.917 576.484 202.415 574.686 201.263 574.422Z" fill="#333333"/>
<path d="M207.051 567.287C201.158 568.106 195.16 568.053 189.215 568.053C188.036 568.053 188.036 569.903 189.215 569.903C195.317 569.903 201.472 569.929 207.522 569.084C208.701 568.899 208.203 567.128 207.051 567.287Z" fill="#333333"/>
<path d="M330.333 502.748C315.535 502.774 300.449 505.998 285.782 502.774C284.629 502.51 284.132 504.307 285.284 504.571C300.135 507.822 315.326 504.651 330.307 504.598C331.512 504.598 331.512 502.748 330.333 502.748Z" fill="#333333"/>
<path d="M320.354 493.26C313.23 490.696 305.556 494.766 298.354 492.467C297.227 492.097 296.756 493.894 297.856 494.264C301.392 495.401 305.111 495.136 308.778 494.766C312.444 494.396 316.321 493.789 319.857 495.057C320.983 495.454 321.48 493.656 320.354 493.26Z" fill="#333333"/>
<path d="M324.283 511.496C317.395 509.593 309.851 510.65 302.832 510.676C301.654 510.676 301.654 512.526 302.832 512.526C306.394 512.526 309.956 512.341 313.518 512.341C316.949 512.341 320.485 512.368 323.785 513.293C324.938 513.61 325.435 511.813 324.283 511.496Z" fill="#333333"/>
<path d="M474.987 562.001C460.189 562.027 445.103 565.251 430.436 562.027C429.284 561.763 428.786 563.56 429.938 563.824C444.789 567.075 459.98 563.904 474.961 563.851C476.166 563.851 476.166 562.001 474.987 562.001Z" fill="#333333"/>
<path d="M468.937 570.749C462.049 568.846 454.506 569.903 447.486 569.929C446.308 569.929 446.308 571.779 447.486 571.779C451.049 571.779 454.611 571.594 458.173 571.594C461.604 571.594 465.139 571.621 468.44 572.546C469.592 572.837 470.09 571.066 468.937 570.749Z" fill="#333333"/>
<path d="M323.262 557.455C308.333 557.455 293.404 558.248 278.475 558.248C277.296 558.248 277.296 560.098 278.475 560.098C293.404 560.098 308.333 559.305 323.262 559.305C324.44 559.305 324.44 557.455 323.262 557.455Z" fill="#333333"/>
<path d="M560.24 241.739C562.231 237.801 558.852 234.63 555.421 235.581C556.547 232.172 553.614 228.578 549.606 230.375C544.473 232.674 546.647 242.981 546.83 243.801C547.616 244.012 557.673 246.787 560.24 241.739Z" fill="#333333"/>
<path d="M563.095 216.896C564.378 214.359 562.204 212.324 560.004 212.959C560.737 210.765 558.852 208.466 556.285 209.629C552.985 211.109 554.373 217.716 554.504 218.244C555.001 218.35 561.445 220.121 563.095 216.896Z" fill="#C55B83"/>
<path d="M540.203 268.115C541.487 265.578 539.313 263.543 537.113 264.177C537.846 261.984 535.96 259.684 533.393 260.847C530.093 262.327 531.481 268.934 531.612 269.463C532.11 269.568 538.553 271.339 540.203 268.115Z" fill="#C55B83"/>
<path d="M497.25 281.726C498.821 282.492 498.586 284.421 498.167 285.875C497.826 287.011 499.607 287.54 499.921 286.404C500.681 283.787 500.34 280.906 497.538 279.849C494.997 278.924 491.907 280.034 489.707 281.329C487.009 282.941 484.757 285.611 484.207 288.782C483.526 292.826 485.726 296.737 488.554 299.433C494.814 305.353 503.483 302.261 509.01 296.975C511.995 294.121 514.327 290.526 515.636 286.615C516.919 282.756 516.71 278.951 515.557 275.119C514.641 272 513.069 268.987 510.581 266.873C508.381 265.023 505.657 264.071 502.802 263.834C495.862 263.252 488.764 266.397 482.766 269.516C471.792 275.198 461.839 282.783 452.332 290.764C457.78 283.84 463.62 277.206 469.304 270.467C469.723 270.546 470.194 270.388 470.352 269.859C470.456 269.542 470.535 269.225 470.613 268.908C476.035 262.433 481.299 255.826 485.883 248.743C491.357 247.871 496.805 247.131 501.755 244.382C502.802 243.801 501.938 242.162 500.89 242.744C496.621 245.122 491.933 245.915 487.192 246.655C488.842 244.012 490.414 241.29 491.854 238.515C495.286 231.855 497.747 224.825 499.188 217.584C499.188 217.584 499.188 217.584 499.214 217.557C500.131 216.791 501.021 216.024 501.912 215.231C503.457 213.857 505.683 212.245 506.495 210.263C506.941 209.153 505.186 208.651 504.741 209.734C504.531 210.21 503.798 210.897 503.352 211.346C502.541 212.166 501.702 212.932 500.838 213.699C500.445 214.042 500.052 214.386 499.686 214.729C500.629 208.73 500.838 202.572 500.236 196.388C500.131 195.225 498.297 195.146 498.402 196.335C499.057 203.154 498.743 209.919 497.538 216.526C497.512 216.553 497.486 216.579 497.459 216.606C497.224 216.817 497.014 216.87 497.171 216.817C497.119 216.844 497.04 216.896 496.988 216.949C496.909 217.029 496.857 217.108 496.805 217.161C496.464 217.61 496.726 218.191 497.145 218.429C496.569 221.099 495.862 223.741 494.997 226.358C493.426 221.31 485.935 213.011 484.547 211.531C483.735 210.659 482.399 211.928 483.211 212.8C485.673 215.443 487.952 218.244 490.047 221.178C491.147 222.711 492.195 224.323 492.981 226.041C493.243 226.596 493.478 227.204 493.505 227.838C493.531 228.234 493.505 228.287 493.19 228.366C492.038 228.657 492.457 230.454 493.609 230.164C493.609 230.164 493.609 230.164 493.635 230.164C493.19 231.326 492.693 232.463 492.195 233.599C490.1 238.277 487.585 242.717 484.809 246.999C484.469 247.051 484.128 247.104 483.788 247.157C482.871 247.316 482.949 248.479 483.578 248.849C480.016 254.161 476.087 259.235 472.054 264.151C471.766 264.521 471.452 264.891 471.137 265.261C471.556 258.389 469.042 251.412 470.509 244.541C470.771 243.378 468.99 242.849 468.754 244.012C467.863 248.161 468.282 252.364 468.78 256.566C469.225 260.319 469.723 264.177 468.937 267.904C461.054 277.312 452.882 286.456 445.679 296.42C445.051 297.266 446.256 298.164 447.015 297.609C447.329 297.847 447.801 297.926 448.194 297.583C454.061 292.614 462.939 294.623 468.649 298.772C471.399 300.781 473.73 303.661 474.437 307.071C475.249 310.956 473.285 314.576 470.666 317.272C467.89 320.1 463.961 321.765 460.242 319.783C457.439 318.303 455.553 315.131 455.711 311.934C455.894 308.234 459.823 305.009 463.463 306.04C465.166 306.516 466.501 308.022 466.894 309.74C467.366 311.722 466.135 313.281 464.458 314.101C464.17 314.233 463.856 314.339 463.542 314.444C462.416 314.814 462.835 316.611 463.961 316.241C465.978 315.581 467.706 314.444 468.518 312.383C469.173 310.744 468.754 308.815 467.89 307.335C465.689 303.582 460.923 303.133 457.57 305.485C451.363 309.819 453.799 319.096 460.242 321.791C467.837 324.989 476.166 316.717 476.48 309.264C476.795 301.785 469.801 296.182 463.437 293.989C459.665 292.694 455.449 292.429 451.703 293.645C461.342 285.452 471.425 277.629 482.557 271.656C488.581 268.406 495.6 265.155 502.593 265.604C505.291 265.789 507.91 266.741 509.9 268.617C512.388 270.943 513.619 274.299 514.353 277.55C516.134 285.558 511.079 293.83 504.557 298.138C501.493 300.173 497.695 301.415 494.055 300.411C490.231 299.38 486.931 295.627 486.092 291.769C485.097 287.249 488.633 283.47 492.509 281.911C493.871 281.461 495.836 281.039 497.25 281.726Z" fill="#333333"/>
<path d="M500.235 201.013C502.738 201.013 504.767 198.966 504.767 196.441C504.767 193.916 502.738 191.869 500.235 191.869C497.733 191.869 495.704 193.916 495.704 196.441C495.704 198.966 497.733 201.013 500.235 201.013Z" fill="#C55B83"/>
<path d="M505.16 246.285C507.662 246.285 509.691 244.238 509.691 241.713C509.691 239.188 507.662 237.141 505.16 237.141C502.657 237.141 500.628 239.188 500.628 241.713C500.628 244.238 502.657 246.285 505.16 246.285Z" fill="#C55B83"/>
<path d="M470.273 246.814C472.776 246.814 474.804 244.767 474.804 242.241C474.804 239.716 472.776 237.669 470.273 237.669C467.771 237.669 465.742 239.716 465.742 242.241C465.742 244.767 467.771 246.814 470.273 246.814Z" fill="#C55B83"/>
<path d="M483.29 214.306C484.881 214.306 486.171 213.005 486.171 211.399C486.171 209.794 484.881 208.492 483.29 208.492C481.699 208.492 480.409 209.794 480.409 211.399C480.409 213.005 481.699 214.306 483.29 214.306Z" fill="#C55B83"/>
<path d="M507.464 211.267C509.055 211.267 510.345 209.966 510.345 208.36C510.345 206.754 509.055 205.453 507.464 205.453C505.873 205.453 504.583 206.754 504.583 208.36C504.583 209.966 505.873 211.267 507.464 211.267Z" fill="#C55B83"/>
<path d="M511.341 302.446C515.872 297.609 518.753 291.584 521.005 285.373C521.424 284.263 519.643 283.734 519.25 284.844C517.181 290.526 514.588 296.024 510.581 300.569C507.229 304.349 502.488 308.498 497.25 308.947C496.097 309.053 496.019 310.903 497.197 310.797C502.75 310.321 507.595 306.41 511.341 302.446Z" fill="#333333"/>
<path d="M438.372 272.396C437.56 271.524 436.224 272.793 437.036 273.665C437.848 274.537 439.184 273.269 438.372 272.396Z" fill="#333333"/>
<path d="M443.924 246.021L443.217 245.254C442.877 244.884 442.274 244.858 441.934 245.228C441.593 245.598 441.541 246.179 441.908 246.523L442.615 247.289C442.955 247.659 443.558 247.686 443.898 247.316C444.239 246.972 444.265 246.391 443.924 246.021Z" fill="#333333"/>
<path d="M480.409 226.49C479.597 225.618 478.261 226.886 479.073 227.759C479.885 228.631 481.221 227.362 480.409 226.49Z" fill="#333333"/>
<path d="M483.316 171.519C483.342 171.016 482.923 170.594 482.426 170.567C482.19 170.567 481.928 170.541 481.692 170.541C481.195 170.514 480.776 170.937 480.749 171.439C480.723 171.941 481.142 172.364 481.64 172.391C481.876 172.391 482.137 172.417 482.373 172.417C482.897 172.444 483.316 172.021 483.316 171.519Z" fill="#333333"/>
<path d="M516.107 169.193C515.295 168.321 513.96 169.589 514.772 170.461C515.583 171.307 516.919 170.039 516.107 169.193Z" fill="#333333"/>
<path d="M532.189 203.841C532.556 203.497 532.556 202.889 532.215 202.546C531.901 202.202 531.403 202.176 531.037 202.414C530.984 202.414 530.932 202.414 530.906 202.414C530.486 202.414 530.12 202.546 529.805 202.836C529.439 203.18 529.439 203.788 529.779 204.131C530.094 204.475 530.591 204.501 530.958 204.264C531.01 204.264 531.063 204.264 531.089 204.264C531.482 204.29 531.848 204.131 532.189 203.841Z" fill="#333333"/>
<path d="M516.16 220.041L515.793 219.645C515.453 219.275 514.85 219.249 514.51 219.619C514.169 219.989 514.117 220.57 514.484 220.914L514.85 221.31C515.191 221.68 515.793 221.706 516.134 221.336C516.474 220.966 516.5 220.411 516.16 220.041Z" fill="#333333"/>
<path d="M531.01 245.149L530.644 244.752C530.303 244.382 529.701 244.356 529.36 244.726C529.02 245.096 528.968 245.677 529.334 246.021L529.701 246.417C530.041 246.787 530.644 246.814 530.984 246.444C531.351 246.1 531.377 245.492 531.01 245.149Z" fill="#333333"/>
<path d="M432.767 313.387C431.955 312.515 430.619 313.784 431.431 314.656C432.243 315.501 433.579 314.233 432.767 313.387Z" fill="#333333"/>
<path d="M486.197 320.787C486.197 320.549 486.223 320.285 486.223 320.047C486.249 319.545 485.83 319.122 485.333 319.096C484.835 319.069 484.416 319.492 484.39 319.994C484.39 320.232 484.364 320.496 484.364 320.734C484.338 321.237 484.757 321.659 485.254 321.686C485.752 321.712 486.171 321.289 486.197 320.787Z" fill="#333333"/>
<path d="M46.0012 241.739C44.0106 237.801 47.3893 234.63 50.8204 235.581C49.6941 232.172 52.6275 228.578 56.6348 230.375C61.7683 232.674 59.5944 242.981 59.4111 243.801C58.6253 244.012 48.5679 246.787 46.0012 241.739Z" fill="#333333"/>
<path d="M43.1463 216.896C41.8629 214.359 44.0368 212.324 46.2369 212.959C45.5035 210.765 47.3893 208.466 49.956 209.629C53.2561 211.109 51.868 217.716 51.737 218.244C51.2656 218.35 44.7963 220.121 43.1463 216.896Z" fill="#C55B83"/>
<path d="M66.0374 268.115C64.754 265.578 66.9279 263.543 69.128 264.177C68.3946 261.984 70.2804 259.684 72.8471 260.847C76.1472 262.327 74.7591 268.934 74.6281 269.463C74.1567 269.568 67.6874 271.339 66.0374 268.115Z" fill="#C55B83"/>
<path d="M108.991 281.726C107.42 282.492 107.655 284.421 108.074 285.875C108.415 287.011 106.634 287.54 106.32 286.404C105.56 283.787 105.901 280.906 108.703 279.849C111.244 278.924 114.334 280.034 116.534 281.329C119.232 282.941 121.484 285.611 122.034 288.782C122.715 292.826 120.515 296.737 117.687 299.433C111.427 305.353 102.758 302.261 97.2312 296.975C94.2454 294.121 91.9144 290.526 90.6049 286.615C89.3215 282.756 89.531 278.951 90.6834 275.119C91.6001 272 93.1716 268.987 95.6598 266.873C97.8598 265.023 100.584 264.071 103.439 263.834C110.379 263.252 117.477 266.397 123.475 269.516C134.449 275.198 144.402 282.783 153.909 290.764C148.461 283.84 142.621 277.206 136.937 270.467C136.518 270.546 136.047 270.388 135.889 269.859C135.785 269.542 135.706 269.225 135.628 268.908C130.206 262.433 124.942 255.826 120.358 248.743C114.884 247.871 109.436 247.131 104.486 244.382C103.439 243.801 104.303 242.162 105.351 242.744C109.62 245.122 114.308 245.915 119.049 246.655C117.398 244.012 115.827 241.29 114.386 238.515C110.955 231.855 108.493 224.825 107.053 217.584C107.053 217.584 107.053 217.584 107.027 217.557C106.11 216.791 105.22 216.024 104.329 215.231C102.784 213.857 100.558 212.245 99.7456 210.263C99.3003 209.153 101.055 208.651 101.5 209.734C101.71 210.21 102.443 210.897 102.889 211.346C103.7 212.166 104.539 212.932 105.403 213.699C105.796 214.042 106.189 214.386 106.555 214.729C105.612 208.73 105.403 202.572 106.005 196.388C106.11 195.225 107.943 195.146 107.839 196.335C107.184 203.154 107.498 209.919 108.703 216.526C108.729 216.553 108.755 216.579 108.782 216.606C109.017 216.817 109.227 216.87 109.07 216.817C109.122 216.844 109.201 216.896 109.253 216.949C109.332 217.029 109.384 217.108 109.436 217.161C109.777 217.61 109.515 218.191 109.096 218.429C109.672 221.099 110.379 223.741 111.244 226.358C112.815 221.31 120.306 213.011 121.694 211.531C122.506 210.659 123.842 211.928 123.03 212.8C120.568 215.443 118.289 218.244 116.194 221.178C115.094 222.711 114.046 224.323 113.26 226.041C112.998 226.596 112.763 227.204 112.736 227.838C112.71 228.234 112.736 228.287 113.051 228.366C114.203 228.657 113.784 230.454 112.632 230.164C112.632 230.164 112.632 230.164 112.605 230.164C113.051 231.326 113.548 232.463 114.046 233.599C116.141 238.277 118.656 242.717 121.432 246.999C121.772 247.051 122.113 247.104 122.453 247.157C123.37 247.316 123.291 248.479 122.663 248.849C126.225 254.161 130.154 259.235 134.187 264.151C134.475 264.521 134.789 264.891 135.104 265.261C134.685 258.389 137.199 251.412 135.732 244.541C135.47 243.378 137.251 242.849 137.487 244.012C138.378 248.161 137.959 252.364 137.461 256.566C137.016 260.319 136.518 264.177 137.304 267.904C145.187 277.312 153.359 286.456 160.562 296.42C161.19 297.266 159.985 298.164 159.226 297.609C158.912 297.847 158.44 297.926 158.047 297.583C152.18 292.614 143.302 294.623 137.592 298.772C134.842 300.781 132.511 303.661 131.804 307.071C130.992 310.956 132.956 314.576 135.575 317.272C138.351 320.1 142.28 321.765 145.999 319.783C148.802 318.303 150.688 315.131 150.53 311.934C150.347 308.234 146.418 305.009 142.778 306.04C141.075 306.516 139.74 308.022 139.347 309.74C138.875 311.722 140.106 313.281 141.783 314.101C142.071 314.233 142.385 314.339 142.699 314.444C143.825 314.814 143.406 316.611 142.28 316.241C140.263 315.581 138.535 314.444 137.723 312.383C137.068 310.744 137.487 308.815 138.351 307.335C140.552 303.582 145.318 303.133 148.671 305.485C154.878 309.819 152.442 319.096 145.999 321.791C138.404 324.989 130.075 316.717 129.761 309.264C129.446 301.785 136.44 296.182 142.804 293.989C146.576 292.694 150.792 292.429 154.538 293.645C144.899 285.452 134.816 277.629 123.684 271.656C117.66 268.406 110.641 265.155 103.648 265.604C100.95 265.789 98.3313 266.741 96.3407 268.617C93.8526 270.943 92.6216 274.299 91.8882 277.55C90.1072 285.558 95.1621 293.83 101.684 298.138C104.748 300.173 108.546 301.415 112.186 300.411C116.01 299.38 119.31 295.627 120.149 291.769C121.144 287.249 117.608 283.47 113.732 281.911C112.37 281.461 110.405 281.039 108.991 281.726Z" fill="#333333"/>
<path d="M106.005 201.013C108.508 201.013 110.536 198.966 110.536 196.441C110.536 193.916 108.508 191.869 106.005 191.869C103.503 191.869 101.474 193.916 101.474 196.441C101.474 198.966 103.503 201.013 106.005 201.013Z" fill="#C55B83"/>
<path d="M101.108 246.285C103.61 246.285 105.639 244.238 105.639 241.713C105.639 239.188 103.61 237.141 101.108 237.141C98.605 237.141 96.5764 239.188 96.5764 241.713C96.5764 244.238 98.605 246.285 101.108 246.285Z" fill="#C55B83"/>
<path d="M135.968 246.814C138.471 246.814 140.499 244.767 140.499 242.241C140.499 239.716 138.471 237.669 135.968 237.669C133.466 237.669 131.437 239.716 131.437 242.241C131.437 244.767 133.466 246.814 135.968 246.814Z" fill="#C55B83"/>
<path d="M122.951 214.306C124.542 214.306 125.832 213.005 125.832 211.399C125.832 209.794 124.542 208.492 122.951 208.492C121.36 208.492 120.07 209.794 120.07 211.399C120.07 213.005 121.36 214.306 122.951 214.306Z" fill="#C55B83"/>
<path d="M98.7765 211.267C100.368 211.267 101.658 209.966 101.658 208.36C101.658 206.754 100.368 205.453 98.7765 205.453C97.1854 205.453 95.8955 206.754 95.8955 208.36C95.8955 209.966 97.1854 211.267 98.7765 211.267Z" fill="#C55B83"/>
<path d="M94.9265 302.446C90.3954 297.609 87.5143 291.584 85.2619 285.373C84.8428 284.263 86.6238 283.734 87.0167 284.844C89.0858 290.526 91.6787 296.024 95.686 300.569C99.0385 304.349 103.779 308.498 109.017 308.947C110.17 309.053 110.248 310.903 109.07 310.797C103.491 310.321 98.6456 306.41 94.9265 302.446Z" fill="#333333"/>
<path d="M167.895 272.396C168.707 271.524 170.043 272.793 169.231 273.665C168.393 274.537 167.083 273.269 167.895 272.396Z" fill="#333333"/>
<path d="M162.317 246.021L163.024 245.254C163.364 244.884 163.967 244.858 164.307 245.228C164.648 245.598 164.7 246.179 164.333 246.523L163.626 247.289C163.286 247.659 162.683 247.686 162.343 247.316C162.002 246.972 161.976 246.391 162.317 246.021Z" fill="#333333"/>
<path d="M125.832 226.49C126.644 225.618 127.98 226.886 127.168 227.759C126.356 228.631 125.02 227.362 125.832 226.49Z" fill="#333333"/>
<path d="M122.925 171.519C122.899 171.016 123.318 170.594 123.815 170.567C124.051 170.567 124.313 170.541 124.549 170.541C125.046 170.514 125.465 170.937 125.492 171.439C125.518 171.941 125.099 172.364 124.601 172.391C124.365 172.391 124.103 172.417 123.868 172.417C123.37 172.444 122.925 172.021 122.925 171.519Z" fill="#333333"/>
<path d="M90.1333 169.193C90.9453 168.321 92.281 169.589 91.4691 170.461C90.6572 171.307 89.3214 170.039 90.1333 169.193Z" fill="#333333"/>
<path d="M75.1782 204.29C75.2044 204.29 75.2568 204.29 75.3092 204.29C75.6758 204.528 76.1735 204.501 76.4878 204.158C76.8283 203.814 76.8283 203.18 76.4616 202.863C76.1473 202.572 75.7806 202.44 75.3616 202.44C75.3354 202.44 75.283 202.44 75.2306 202.44C74.8639 202.202 74.3663 202.229 74.052 202.572C73.7115 202.916 73.7115 203.55 74.0782 203.867C74.3925 204.131 74.7592 204.29 75.1782 204.29Z" fill="#333333"/>
<path d="M90.081 220.041L90.4477 219.645C90.7882 219.275 91.3906 219.249 91.7311 219.619C92.0716 219.989 92.124 220.57 91.7573 220.914L91.3906 221.31C91.0501 221.68 90.4477 221.706 90.1072 221.336C89.7667 220.966 89.7405 220.411 90.081 220.041Z" fill="#333333"/>
<path d="M75.2307 245.149L75.5974 244.752C75.9379 244.382 76.5402 244.356 76.8807 244.726C77.2212 245.096 77.2736 245.677 76.9069 246.021L76.5402 246.417C76.1998 246.787 75.5974 246.814 75.2569 246.444C74.8902 246.1 74.8902 245.492 75.2307 245.149Z" fill="#333333"/>
<path d="M173.474 313.387C174.286 312.515 175.622 313.784 174.81 314.656C173.998 315.501 172.662 314.233 173.474 313.387Z" fill="#333333"/>
<path d="M120.07 320.787C120.07 320.549 120.044 320.285 120.044 320.047C120.018 319.545 120.437 319.122 120.934 319.096C121.432 319.069 121.851 319.492 121.877 319.994C121.877 320.232 121.903 320.496 121.903 320.734C121.93 321.237 121.511 321.659 121.013 321.686C120.489 321.712 120.07 321.289 120.07 320.787Z" fill="#333333"/>
<path d="M73.3709 546.355H72.5851C72.0875 546.355 71.6685 546.778 71.6685 547.28C71.6685 547.782 72.0875 548.205 72.5851 548.205H73.3709C73.8685 548.205 74.2876 547.782 74.2876 547.28C74.2876 546.778 73.8685 546.355 73.3709 546.355Z" fill="#333333"/>
<path d="M141.599 526.798C141.259 526.454 140.656 526.454 140.29 526.798L139.504 527.591C139.163 527.934 139.163 528.542 139.504 528.886C139.844 529.229 140.447 529.229 140.787 528.886C141.049 528.621 141.311 528.357 141.573 528.093C141.966 527.749 141.966 527.168 141.599 526.798Z" fill="#333333"/>
<path d="M133.087 578.069C131.908 578.069 131.908 579.919 133.087 579.919C134.266 579.919 134.266 578.069 133.087 578.069Z" fill="#333333"/>
<path d="M241.492 529.203C241.231 528.516 240.681 528.146 239.947 528.119C239.45 528.093 239.031 528.542 239.031 529.044C239.031 529.52 239.371 529.864 239.79 529.943C239.79 529.969 239.816 530.075 239.816 530.102C239.816 530.287 239.816 530.445 239.816 530.63C239.816 531.132 240.235 531.555 240.733 531.555C241.231 531.555 241.65 531.132 241.65 530.63C241.676 530.154 241.676 529.652 241.492 529.203Z" fill="#333333"/>
<path d="M271.403 594.719H270.617C270.119 594.719 269.7 595.142 269.7 595.644C269.7 596.146 270.119 596.569 270.617 596.569H271.403C271.9 596.569 272.32 596.146 272.32 595.644C272.32 595.142 271.9 594.719 271.403 594.719Z" fill="#333333"/>
<path d="M371.192 588.377C370.694 588.377 370.301 588.799 370.275 589.275V589.302C370.249 589.328 370.249 589.354 370.222 589.354C370.17 589.407 370.118 589.46 370.039 589.539C369.672 589.909 369.515 590.359 369.489 590.887C369.463 591.389 369.908 591.812 370.406 591.812C370.903 591.812 371.296 591.389 371.322 590.914C371.322 590.914 371.322 590.887 371.349 590.887C371.375 590.861 371.375 590.834 371.401 590.834C371.453 590.781 371.506 590.729 371.584 590.649C371.951 590.279 372.108 589.83 372.134 589.302C372.134 588.799 371.689 588.377 371.192 588.377Z" fill="#333333"/>
<path d="M345.367 547.386C345.105 547.227 344.79 547.148 344.502 547.148C344.005 547.148 343.585 547.571 343.585 548.073C343.585 548.549 343.952 548.919 344.397 548.998C344.45 549.447 344.843 549.791 345.288 549.791C345.786 549.791 346.205 549.368 346.205 548.866C346.178 548.258 345.89 547.676 345.367 547.386Z" fill="#333333"/>
<path d="M438.791 532.876C437.612 532.876 437.612 534.726 438.791 534.726C439.97 534.726 439.97 532.876 438.791 532.876Z" fill="#333333"/>
<path d="M524.515 526.771C524.253 526.613 523.939 526.534 523.651 526.534C523.153 526.534 522.734 526.956 522.734 527.459C522.734 527.934 523.101 528.304 523.546 528.384C523.598 528.833 523.991 529.176 524.437 529.176C524.934 529.176 525.353 528.754 525.353 528.251C525.327 527.644 525.065 527.062 524.515 526.771Z" fill="#333333"/>
<path d="M518.936 578.069C516.684 578.069 514.562 578.201 512.415 578.889C511.288 579.259 511.76 581.029 512.912 580.686C514.903 580.051 516.867 579.919 518.962 579.919C520.115 579.919 520.115 578.069 518.936 578.069Z" fill="#333333"/>
<path d="M621.082 551.112C620.558 551.112 620.192 551.535 620.165 552.037C620.165 552.064 620.165 552.064 620.165 552.064C620.139 552.116 620.113 552.196 620.113 552.196C620.087 552.222 620.061 552.275 620.061 552.301C620.035 552.328 620.035 552.328 620.035 552.354C620.035 552.354 620.008 552.381 619.982 552.407C619.93 552.46 619.904 552.486 619.851 552.539C619.956 552.434 619.746 552.592 619.746 552.619C619.72 552.619 619.72 552.645 619.694 552.645C619.668 552.645 619.668 552.645 619.615 552.671C619.589 552.671 619.589 552.671 619.563 552.698C619.537 552.698 619.537 552.698 619.511 552.698C619.013 552.724 618.594 553.094 618.594 553.623C618.594 554.125 619.013 554.574 619.511 554.548C620.846 554.495 621.947 553.385 621.999 552.037C622.025 551.535 621.58 551.112 621.082 551.112Z" fill="#333333"/>
<path d="M557.438 460.727C556.337 460.779 555.368 461.467 554.295 461.519C553.116 461.572 553.116 463.422 554.295 463.369C555.395 463.317 556.364 462.629 557.438 462.577C558.616 462.524 558.616 460.674 557.438 460.727Z" fill="#333333"/>
<path d="M608.51 455.969C607.332 455.969 607.332 457.819 608.51 457.819C609.689 457.819 609.689 455.969 608.51 455.969Z" fill="#333333"/>
<path d="M614.142 422.141C613.513 422.722 612.439 422.669 611.653 422.669C610.475 422.669 610.475 424.519 611.653 424.519C612.989 424.519 614.404 424.414 615.451 423.462C616.315 422.643 615.032 421.321 614.142 422.141Z" fill="#333333"/>
<path d="M552.723 404.407C551.544 404.407 551.544 406.257 552.723 406.257C553.902 406.257 553.902 404.407 552.723 404.407Z" fill="#333333"/>
<path d="M3.44031 452.005C2.10456 452.058 1.00453 453.168 0.95215 454.516C0.925959 455.018 1.37121 455.441 1.86884 455.441C2.39267 455.441 2.75934 455.018 2.78553 454.516C2.78553 454.489 2.78553 454.489 2.78553 454.489C2.81173 454.436 2.83792 454.357 2.83792 454.357C2.86411 454.331 2.8903 454.278 2.8903 454.251C2.91649 454.225 2.91649 454.225 2.91649 454.199C2.91649 454.199 2.94268 454.172 2.96888 454.146C3.02126 454.093 3.04745 454.066 3.09983 454.014C2.99507 454.119 3.2046 453.961 3.2046 453.934C3.23079 453.934 3.23079 453.908 3.25698 453.908C3.28317 453.908 3.28317 453.908 3.33555 453.881C3.36174 453.881 3.36175 453.881 3.38794 453.855C3.41413 453.855 3.41412 453.855 3.44031 453.855C3.93795 453.829 4.35701 453.459 4.35701 452.93C4.35701 452.428 3.93795 451.979 3.44031 452.005Z" fill="#333333"/>
<path d="M71.6685 460.198C70.5947 459.114 69.4684 458.374 67.8708 458.348C66.6922 458.321 66.6922 460.171 67.8708 460.198C68.9446 460.224 69.6256 460.779 70.3589 461.519C71.1971 462.339 72.5066 461.044 71.6685 460.198Z" fill="#333333"/>
<path d="M35.6556 413.948C35.158 413.948 34.7389 414.371 34.7389 414.873V415.666C34.7389 416.168 35.158 416.591 35.6556 416.591C36.1532 416.591 36.5723 416.168 36.5723 415.666V414.873C36.5723 414.344 36.1532 413.948 35.6556 413.948Z" fill="#333333"/>
<path d="M73.3709 369.521C72.8733 369.521 72.4542 369.944 72.4542 370.446V371.239C72.4542 371.741 72.8733 372.164 73.3709 372.164C73.8685 372.164 74.2876 371.741 74.2876 371.239V370.446C74.2876 369.944 73.8685 369.521 73.3709 369.521Z" fill="#333333"/>
<path d="M8.15471 574.105C6.9761 574.105 6.9761 575.955 8.15471 575.955C9.33331 575.955 9.33331 574.105 8.15471 574.105Z" fill="#333333"/>
<path d="M151.945 541.598C151.447 541.598 151.028 542.021 151.028 542.523V544.109C151.028 544.611 151.447 545.034 151.945 545.034C152.442 545.034 152.861 544.611 152.861 544.109V542.523C152.861 542.021 152.469 541.598 151.945 541.598Z" fill="#333333"/>
<path d="M78.0854 597.098H77.2996C76.802 597.098 76.3829 597.521 76.3829 598.023C76.3829 598.525 76.802 598.948 77.2996 598.948H78.0854C78.583 598.948 79.0021 598.525 79.0021 598.023C79.0021 597.521 78.583 597.098 78.0854 597.098Z" fill="#333333"/>
<path d="M325.959 608.198H325.619C324.44 608.198 324.44 610.048 325.619 610.048H325.959C327.138 610.048 327.138 608.198 325.959 608.198Z" fill="#333333"/>
<path d="M231.959 305.564C231.618 305.221 231.016 305.221 230.675 305.564L229.89 306.357C229.549 306.701 229.549 307.309 229.89 307.652C230.23 307.996 230.833 307.996 231.173 307.652L231.959 306.859C232.325 306.516 232.325 305.934 231.959 305.564Z" fill="#333333"/>
<path d="M230.544 279.136C230.047 279.136 229.628 279.559 229.628 280.061V281.646C229.628 282.149 230.047 282.571 230.544 282.571C231.042 282.571 231.461 282.149 231.461 281.646V280.061C231.461 279.559 231.042 279.136 230.544 279.136Z" fill="#333333"/>
<path d="M388.478 352.079C387.98 352.052 387.561 352.501 387.561 353.004C387.561 353.532 387.98 353.902 388.478 353.929C388.504 353.929 388.504 353.929 388.504 353.929C388.556 353.955 388.635 353.981 388.635 353.981C388.661 354.008 388.713 354.034 388.74 354.034C388.766 354.061 388.766 354.061 388.792 354.061C388.792 354.061 388.818 354.087 388.844 354.114C388.897 354.166 388.923 354.193 388.975 354.246C388.871 354.14 389.028 354.351 389.054 354.351C389.054 354.378 389.08 354.378 389.08 354.404C389.08 354.431 389.08 354.431 389.106 354.484C389.106 354.51 389.106 354.51 389.133 354.537C389.133 354.563 389.133 354.563 389.133 354.589C389.159 355.092 389.525 355.514 390.049 355.514C390.547 355.514 390.992 355.092 390.966 354.589C390.914 353.268 389.814 352.131 388.478 352.079Z" fill="#333333"/>
<path d="M378.132 276.229C377.792 275.859 377.189 275.885 376.849 276.229C376.482 276.599 376.508 277.18 376.849 277.55C376.98 277.709 377.058 277.788 377.163 277.973C377.189 278.026 377.215 278.079 377.242 278.131C377.242 278.158 377.294 278.237 377.294 278.264C377.32 278.343 377.346 278.396 377.346 278.475C377.346 278.977 377.765 279.4 378.263 279.4C378.761 279.4 379.18 278.977 379.18 278.475C379.18 277.629 378.708 276.836 378.132 276.229Z" fill="#333333"/>
<path d="M214.83 340.979C213.651 340.979 213.651 342.829 214.83 342.829C216.008 342.829 216.008 340.979 214.83 340.979Z" fill="#333333"/>
<path d="M135.313 349.991C134.973 349.647 134.37 349.647 134.03 349.991C133.584 350.44 133.139 350.889 132.694 351.339C132.353 351.682 132.353 352.29 132.694 352.66C133.034 353.004 133.637 353.004 133.977 352.66C134.423 352.211 134.868 351.761 135.313 351.312C135.68 350.942 135.68 350.334 135.313 349.991Z" fill="#333333"/>
<path d="M465.506 348.114C465.008 348.114 464.589 348.537 464.589 349.039V350.625C464.589 351.127 465.008 351.55 465.506 351.55C466.004 351.55 466.423 351.127 466.423 350.625V349.039C466.423 348.537 466.004 348.114 465.506 348.114Z" fill="#333333"/>
<path d="M537.532 357.972C537.401 357.655 537.165 357.338 537.139 356.994C537.087 355.805 535.253 355.805 535.306 356.994C535.332 357.496 535.489 357.919 535.699 358.395C535.83 358.712 536.065 359.029 536.091 359.373C536.144 360.562 537.977 360.562 537.925 359.373C537.899 358.844 537.741 358.421 537.532 357.972Z" fill="#333333"/>
<path d="M551.937 310.057C550.759 310.057 550.759 311.907 551.937 311.907C553.116 311.907 553.116 310.057 551.937 310.057Z" fill="#333333"/>
<path d="M450.167 64.0864C423.609 -11.4993 340.164 -5.81713 309.913 51.6122C279.662 -5.81713 196.217 -11.4993 169.659 64.0864C135.689 160.789 296.896 259.975 309.913 267.771C322.93 259.975 484.137 160.789 450.167 64.0864Z" fill="#FFEEEE"/>
<path d="M310.711 0L344.642 105.375H454.445L365.612 170.5L399.543 275.875L310.711 210.75L221.879 275.875L255.81 170.5L166.977 105.375H276.78L310.711 0Z" fill="white"/>
</svg>
